<svg xmlns="http://www.w3.org/2000/svg" width="256" height="256" viewBox="0 0 256 256"><path d="M188.7 219.1a3.9 3.9 0 0 1-2.3.7 4.2 4.2 0 0 1-3.5-1.9l-37.5-58.4a4.2 4.2 0 0 1 1.2-5.8 4.2 4.2 0 0 1 5.8 1.3l14.2 22.1 5.4-2.8a4.2 4.2 0 0 1 5.6 1.9 4.1 4.1 0 0 1-1.8 5.6l-4.7 2.3 18.8 29.3a4.1 4.1 0 0 1-1.2 5.7m-78-59.6l-37.6 58.4a4.2 4.2 0 0 1-3.5 1.9 3.9 3.9 0 0 1-2.3-.7 4.1 4.1 0 0 1-1.2-5.7l18.8-29.3-4.7-2.3a4.1 4.1 0 0 1-1.8-5.6 4.2 4.2 0 0 1 5.6-1.9l5.4 2.8 14.2-22.1a4.2 4.2 0 0 1 5.8-1.3 4.3 4.3 0 0 1 1.3 5.8M128 82.1a12.5 12.5 0 0 1 12.5 12.5 12.1 12.1 0 0 1-2.4 7.3 18 18 0 0 1-1.9 2l-.4.3a7.1 7.1 0 0 1-1.8 1.2l-.7.4a9.6 9.6 0 0 1-1.8.7l-.8.2a12.3 12.3 0 0 1-5.4 0l-.8-.2a9.6 9.6 0 0 1-1.8-.7l-.7-.4a7.1 7.1 0 0 1-1.8-1.2l-.4-.3a18 18 0 0 1-1.9-2 12.1 12.1 0 0 1-2.4-7.3A12.5 12.5 0 0 1 128 82.1m100 149.3c-9-43.6-53.9-97.7-81.4-127.5a20.4 20.4 0 0 0-6.1-25.9c.2-2 2.7-25.1 16.7-25.1 21.7 0 28.5-36.8 29.2-41a4.2 4.2 0 0 0-3.5-4.8 4.1 4.1 0 0 0-4.8 3.4c-1.5 8.8-8.5 34-20.9 34-18.3 0-23.3 21.4-24.6 29.8a23.2 23.2 0 0 0-4.6-.6 23.2 23.2 0 0 0-4.6.6c-1.3-8.4-6.3-29.8-24.6-29.8-12.5 0-19.3-24.5-20.9-34a4.2 4.2 0 0 0-4.8-3.4 4.1 4.1 0 0 0-3.4 4.8c.7 4.2 7.4 41 29.1 41 14 0 16.5 23.1 16.7 25.1a20.4 20.4 0 0 0-6.1 25.9C81.9 133.7 37 187.8 28 231.3a13.9 13.9 0 0 0 2.7 11.6c3.3 4.1 8.9 6.1 16.6 6.1h2.2a163.8 163.8 0 0 0 41.4-14.1c18.6-9.4 31.1-21.4 37.1-35.1 6.1 13.8 18.5 25.7 37.1 35.1a163.8 163.8 0 0 0 41.4 14.1h2.2c7.7 0 13.3-2 16.6-6.1a13.9 13.9 0 0 0 2.7-11.5"/></svg>