<svg xmlns="http://www.w3.org/2000/svg" width="256" height="256" viewBox="0 0 256 256"><path d="M180.4 204.6a20.2 20.2 0 1 1 20.2-20.2 20.2 20.2 0 0 1-20.2 20.2M128 35.2c8.9 0 16.1 5.4 16.1 12.1s-7.2 12.1-16.1 12.1c-8.9 0-16.1-5.4-16.1-12.1s7.2-12.1 16.1-12.1M75.6 204.6a20.2 20.2 0 1 1 20.1-20.2 20.2 20.2 0 0 1-20.1 20.2m171.9-71.7l-20.2-16.2a4.4 4.4 0 0 0-2.5-.8h-28.1c-6.5-9.8-12.9-18.3-18.4-25.1a88.4 88.4 0 0 0-36.4-27l.9-.6 1.3.2h.4l29.4-2.7a62.8 62.8 0 0 0 29.4-10.4 64.1 64.1 0 0 0 19.9-21.2l9.1-16.1a4 4 0 1 0-7-4l-9.2 16a54.1 54.1 0 0 1-17.3 18.6 54.9 54.9 0 0 1-25.7 9.1l-22.6 2.1a17.9 17.9 0 0 0 1.7-7.5v-.6a16.1 16.1 0 0 0-4-31.7 4.1 4.1 0 1 0 0 8.1A8.1 8.1 0 0 1 150 39c-3.8-7-12.2-11.9-22-11.9S109.8 32 106 39a8.1 8.1 0 0 1 1.8-15.9 4.1 4.1 0 1 0 0-8.1 16.1 16.1 0 0 0-4 31.7v.6a17.9 17.9 0 0 0 1.7 7.5l-22.6-2.1a54.9 54.9 0 0 1-25.7-9.1A54.1 54.1 0 0 1 39.9 25L30.7 9a4 4 0 1 0-7 4l9.1 16.1a64.1 64.1 0 0 0 19.9 21.2 62.8 62.8 0 0 0 29.4 10.4l29.4 2.7h.4l1.3-.2.9.6a88.4 88.4 0 0 0-36.4 27c-5.5 6.8-11.9 15.3-18.4 25.1H31.2a4.4 4.4 0 0 0-2.5.8L8.5 132.9a4 4 0 0 0-.6 5.6 4.1 4.1 0 0 0 3.1 1.6 4.3 4.3 0 0 0 2.6-.9l19-15.3h21.5c-17.9 28.3-35 64.9-35 100.9 0 .5.2 13.1 10.2 20.1 8.2 5.6 20.2 5.5 35.8-.3 1.7-.8 38.4-16.9 58.9-37.2V67.1a20.2 20.2 0 0 0 8 0v140.3c20.5 20.3 57.2 36.4 59.1 37.3 7.8 2.9 14.7 4.4 20.7 4.4a25.9 25.9 0 0 0 14.9-4.2c10-7 10.2-19.6 10.2-20.1 0-36.1-17.1-72.6-35-100.9h21.5l19 15.3a4.3 4.3 0 0 0 2.6.9 4.1 4.1 0 0 0 3.1-1.6 4 4 0 0 0-.6-5.6"/><path d="M75.6 172.3a12.1 12.1 0 1 0 12.1 12.1 12.1 12.1 0 0 0-12.1-12.1m104.8 0a12.1 12.1 0 1 0 12.1 12.1 12.1 12.1 0 0 0-12.1-12.1"/></svg>