<svg xmlns="http://www.w3.org/2000/svg" width="256" height="256" viewBox="0 0 256 256"><path d="M208 182.2a4.1 4.1 0 0 1-1.1 5.6l-9.8 6.5 7 12.3a4.1 4.1 0 0 1-1.5 5.5 3.6 3.6 0 0 1-2 .6 4 4 0 0 1-3.5-2.1l-24-42-10.6 7.1a4.7 4.7 0 0 1-2.2.7 4.3 4.3 0 0 1-3.4-1.8 4.1 4.1 0 0 1 1.1-5.6l11.1-7.4-20.4-35.7a4 4 0 0 1 7-4l5.1 8.9 9.3-6.2a4.1 4.1 0 0 1 5.6 1.1 3.9 3.9 0 0 1-1.1 5.6l-9.8 6.5 28.3 49.5 9.3-6.2a3.9 3.9 0 0 1 5.6 1.1m-100.7-56.3l-20.4 35.7L98 169a4.1 4.1 0 0 1 1.1 5.6 4.3 4.3 0 0 1-3.4 1.8 4.7 4.7 0 0 1-2.2-.7l-10.6-7.1-24 42a4 4 0 0 1-3.5 2.1 3.6 3.6 0 0 1-2-.6 4.1 4.1 0 0 1-1.5-5.5l7-12.3-9.8-6.5a4.1 4.1 0 0 1-1.1-5.6 3.9 3.9 0 0 1 5.6-1.1l9.3 6.2 28.3-49.5-9.8-6.5a3.9 3.9 0 0 1-1.1-5.6 4.1 4.1 0 0 1 5.6-1.1l9.3 6.2 5.1-8.9a4 4 0 1 1 7 4m140.2 7l-20.2-16.2a4.4 4.4 0 0 0-2.5-.8h-28.1c-6.5-9.8-12.9-18.3-18.4-25.1a88.4 88.4 0 0 0-36.4-27l.9-.6 1.3.2h.4l29.4-2.7a62.8 62.8 0 0 0 29.4-10.4 64.1 64.1 0 0 0 19.9-21.2l9.1-16.1a4 4 0 1 0-7-4l-9.2 16a54.1 54.1 0 0 1-17.3 18.6 54.9 54.9 0 0 1-25.7 9.1l-22.6 2.1a17.9 17.9 0 0 0 1.7-7.5v-.6a16.1 16.1 0 0 0-4-31.7 4.1 4.1 0 1 0 0 8.1A8.1 8.1 0 0 1 150 39c-3.8-7-12.2-11.9-22-11.9S109.8 32 106 39a8.1 8.1 0 0 1 1.8-15.9 4.1 4.1 0 1 0 0-8.1 16.1 16.1 0 0 0-4 31.7v.6a17.9 17.9 0 0 0 1.7 7.5l-22.6-2.1a54.9 54.9 0 0 1-25.7-9.1A55.4 55.4 0 0 1 39.8 25L30.7 9a4 4 0 1 0-7 4l9.1 16.1a64.1 64.1 0 0 0 19.9 21.2 62.8 62.8 0 0 0 29.4 10.4l29.4 2.7h.4l1.3-.2.9.6a88.4 88.4 0 0 0-36.4 27c-5.5 6.8-11.9 15.3-18.4 25.1H31.2a4.4 4.4 0 0 0-2.5.8L8.5 132.9a4 4 0 0 0-.6 5.6 4.1 4.1 0 0 0 3.1 1.6 4.3 4.3 0 0 0 2.6-.9l19-15.3h21.5c-17.9 28.3-35 64.9-35 100.9 0 .5.2 13.1 10.2 20.1 8.2 5.6 20.2 5.5 35.8-.3 1.7-.8 38.4-16.9 58.9-37.2V67.1a20.2 20.2 0 0 0 8 0v140.3c20.5 20.3 57.2 36.4 59.1 37.3 7.8 2.9 14.7 4.4 20.7 4.4a25.9 25.9 0 0 0 14.9-4.2c10-7 10.2-19.6 10.2-20.1 0-36.1-17.1-72.6-35-100.9h21.5l19 15.3a4.3 4.3 0 0 0 2.6.9 4.1 4.1 0 0 0 3.1-1.6 4 4 0 0 0-.6-5.6"/></svg>